<mxfile host="app.diagrams.net" agent="Mozilla/5.0 (Windows NT 10.0; Win64; x64) AppleWebKit/537.36 (KHTML, like Gecko) Chrome/126.0.0.0 Safari/537.36 Edg/126.0.0.0" version="24.7.4">
  <diagram id="C5RBs43oDa-KdzZeNtuy" name="Page-1">
    <mxGraphModel dx="3211" dy="1307" grid="1" gridSize="10" guides="1" tooltips="1" connect="1" arrows="1" fold="1" page="1" pageScale="1" pageWidth="827" pageHeight="1169" background="#E6E6E6" math="0" shadow="0">
      <root>
        <mxCell id="WIyWlLk6GJQsqaUBKTNV-0" />
        <mxCell id="WIyWlLk6GJQsqaUBKTNV-1" parent="WIyWlLk6GJQsqaUBKTNV-0" />
        <mxCell id="YZ45WBWzU4J27midmZaH-4" value="" style="edgeStyle=orthogonalEdgeStyle;rounded=0;orthogonalLoop=1;jettySize=auto;html=1;fontSize=13;" edge="1" parent="WIyWlLk6GJQsqaUBKTNV-1" source="YZ45WBWzU4J27midmZaH-0" target="YZ45WBWzU4J27midmZaH-3">
          <mxGeometry relative="1" as="geometry" />
        </mxCell>
        <mxCell id="YZ45WBWzU4J27midmZaH-0" value="开始" style="strokeWidth=2;html=1;shape=mxgraph.flowchart.start_1;whiteSpace=wrap;fontSize=13;" vertex="1" parent="WIyWlLk6GJQsqaUBKTNV-1">
          <mxGeometry x="320" y="70" width="100" height="60" as="geometry" />
        </mxCell>
        <mxCell id="YZ45WBWzU4J27midmZaH-6" value="" style="edgeStyle=orthogonalEdgeStyle;rounded=0;orthogonalLoop=1;jettySize=auto;html=1;fontSize=13;" edge="1" parent="WIyWlLk6GJQsqaUBKTNV-1" source="YZ45WBWzU4J27midmZaH-3" target="YZ45WBWzU4J27midmZaH-5">
          <mxGeometry relative="1" as="geometry" />
        </mxCell>
        <mxCell id="YZ45WBWzU4J27midmZaH-13" value="测试线程" style="edgeLabel;html=1;align=center;verticalAlign=middle;resizable=0;points=[];fontSize=13;" vertex="1" connectable="0" parent="YZ45WBWzU4J27midmZaH-6">
          <mxGeometry x="-0.1094" y="-1" relative="1" as="geometry">
            <mxPoint as="offset" />
          </mxGeometry>
        </mxCell>
        <mxCell id="YZ45WBWzU4J27midmZaH-8" value="" style="edgeStyle=orthogonalEdgeStyle;rounded=0;orthogonalLoop=1;jettySize=auto;html=1;fontSize=13;" edge="1" parent="WIyWlLk6GJQsqaUBKTNV-1" source="YZ45WBWzU4J27midmZaH-3" target="YZ45WBWzU4J27midmZaH-7">
          <mxGeometry relative="1" as="geometry" />
        </mxCell>
        <mxCell id="YZ45WBWzU4J27midmZaH-14" value="监控线程" style="edgeLabel;html=1;align=center;verticalAlign=middle;resizable=0;points=[];fontSize=13;" vertex="1" connectable="0" parent="YZ45WBWzU4J27midmZaH-8">
          <mxGeometry x="0.503" y="-1" relative="1" as="geometry">
            <mxPoint as="offset" />
          </mxGeometry>
        </mxCell>
        <mxCell id="YZ45WBWzU4J27midmZaH-3" value="根据掩码确定线程类别" style="rhombus;whiteSpace=wrap;html=1;strokeWidth=2;fontSize=13;" vertex="1" parent="WIyWlLk6GJQsqaUBKTNV-1">
          <mxGeometry x="295" y="160" width="150" height="80" as="geometry" />
        </mxCell>
        <mxCell id="YZ45WBWzU4J27midmZaH-12" value="" style="edgeStyle=orthogonalEdgeStyle;rounded=0;orthogonalLoop=1;jettySize=auto;html=1;fontSize=13;" edge="1" parent="WIyWlLk6GJQsqaUBKTNV-1" source="YZ45WBWzU4J27midmZaH-5" target="YZ45WBWzU4J27midmZaH-11">
          <mxGeometry relative="1" as="geometry" />
        </mxCell>
        <mxCell id="YZ45WBWzU4J27midmZaH-5" value="进入barrier" style="whiteSpace=wrap;html=1;strokeWidth=2;fontSize=13;" vertex="1" parent="WIyWlLk6GJQsqaUBKTNV-1">
          <mxGeometry x="130" y="440" width="120" height="60" as="geometry" />
        </mxCell>
        <mxCell id="YZ45WBWzU4J27midmZaH-10" style="edgeStyle=orthogonalEdgeStyle;rounded=0;orthogonalLoop=1;jettySize=auto;html=1;exitX=0.5;exitY=1;exitDx=0;exitDy=0;entryX=0.5;entryY=0;entryDx=0;entryDy=0;fontSize=13;" edge="1" parent="WIyWlLk6GJQsqaUBKTNV-1" source="YZ45WBWzU4J27midmZaH-7" target="YZ45WBWzU4J27midmZaH-9">
          <mxGeometry relative="1" as="geometry" />
        </mxCell>
        <mxCell id="YZ45WBWzU4J27midmZaH-7" value="保存MEM中测试线程执行原子操作的变量的值" style="whiteSpace=wrap;html=1;strokeWidth=2;fontSize=13;" vertex="1" parent="WIyWlLk6GJQsqaUBKTNV-1">
          <mxGeometry x="480" y="280" width="120" height="60" as="geometry" />
        </mxCell>
        <mxCell id="YZ45WBWzU4J27midmZaH-16" value="" style="edgeStyle=orthogonalEdgeStyle;rounded=0;orthogonalLoop=1;jettySize=auto;html=1;fontSize=13;" edge="1" parent="WIyWlLk6GJQsqaUBKTNV-1" source="YZ45WBWzU4J27midmZaH-9" target="YZ45WBWzU4J27midmZaH-15">
          <mxGeometry relative="1" as="geometry" />
        </mxCell>
        <mxCell id="YZ45WBWzU4J27midmZaH-9" value="打印变量信息" style="whiteSpace=wrap;html=1;strokeWidth=2;fontSize=13;" vertex="1" parent="WIyWlLk6GJQsqaUBKTNV-1">
          <mxGeometry x="480" y="360" width="120" height="60" as="geometry" />
        </mxCell>
        <mxCell id="YZ45WBWzU4J27midmZaH-20" style="edgeStyle=orthogonalEdgeStyle;rounded=0;orthogonalLoop=1;jettySize=auto;html=1;exitX=0.5;exitY=1;exitDx=0;exitDy=0;fontSize=13;" edge="1" parent="WIyWlLk6GJQsqaUBKTNV-1" source="YZ45WBWzU4J27midmZaH-11" target="YZ45WBWzU4J27midmZaH-19">
          <mxGeometry relative="1" as="geometry" />
        </mxCell>
        <mxCell id="YZ45WBWzU4J27midmZaH-11" value="执行原子操作" style="whiteSpace=wrap;html=1;strokeWidth=2;fontSize=13;" vertex="1" parent="WIyWlLk6GJQsqaUBKTNV-1">
          <mxGeometry x="130" y="530" width="120" height="60" as="geometry" />
        </mxCell>
        <mxCell id="YZ45WBWzU4J27midmZaH-18" style="edgeStyle=orthogonalEdgeStyle;rounded=0;orthogonalLoop=1;jettySize=auto;html=1;entryX=0.5;entryY=0;entryDx=0;entryDy=0;fontSize=13;" edge="1" parent="WIyWlLk6GJQsqaUBKTNV-1" source="YZ45WBWzU4J27midmZaH-15" target="YZ45WBWzU4J27midmZaH-17">
          <mxGeometry relative="1" as="geometry" />
        </mxCell>
        <mxCell id="YZ45WBWzU4J27midmZaH-15" value="进入barrier" style="whiteSpace=wrap;html=1;strokeWidth=2;fontSize=13;" vertex="1" parent="WIyWlLk6GJQsqaUBKTNV-1">
          <mxGeometry x="480" y="440" width="120" height="60" as="geometry" />
        </mxCell>
        <mxCell id="YZ45WBWzU4J27midmZaH-37" style="edgeStyle=orthogonalEdgeStyle;rounded=0;orthogonalLoop=1;jettySize=auto;html=1;exitX=0.5;exitY=1;exitDx=0;exitDy=0;entryX=0.5;entryY=0;entryDx=0;entryDy=0;fontSize=13;" edge="1" parent="WIyWlLk6GJQsqaUBKTNV-1" source="YZ45WBWzU4J27midmZaH-17" target="YZ45WBWzU4J27midmZaH-21">
          <mxGeometry relative="1" as="geometry" />
        </mxCell>
        <mxCell id="YZ45WBWzU4J27midmZaH-17" value="进入barrier" style="whiteSpace=wrap;html=1;strokeWidth=2;fontSize=13;" vertex="1" parent="WIyWlLk6GJQsqaUBKTNV-1">
          <mxGeometry x="480" y="720" width="120" height="60" as="geometry" />
        </mxCell>
        <mxCell id="YZ45WBWzU4J27midmZaH-36" style="edgeStyle=orthogonalEdgeStyle;rounded=0;orthogonalLoop=1;jettySize=auto;html=1;exitX=0.5;exitY=1;exitDx=0;exitDy=0;entryX=0.5;entryY=0;entryDx=0;entryDy=0;fontSize=13;" edge="1" parent="WIyWlLk6GJQsqaUBKTNV-1" source="YZ45WBWzU4J27midmZaH-19" target="YZ45WBWzU4J27midmZaH-22">
          <mxGeometry relative="1" as="geometry" />
        </mxCell>
        <mxCell id="YZ45WBWzU4J27midmZaH-19" value="把原子操作的返回值保存到相应内存地址中" style="whiteSpace=wrap;html=1;strokeWidth=2;fontSize=13;" vertex="1" parent="WIyWlLk6GJQsqaUBKTNV-1">
          <mxGeometry x="130" y="620" width="120" height="60" as="geometry" />
        </mxCell>
        <mxCell id="YZ45WBWzU4J27midmZaH-26" value="" style="edgeStyle=orthogonalEdgeStyle;rounded=0;orthogonalLoop=1;jettySize=auto;html=1;fontSize=13;" edge="1" parent="WIyWlLk6GJQsqaUBKTNV-1" source="YZ45WBWzU4J27midmZaH-21" target="YZ45WBWzU4J27midmZaH-25">
          <mxGeometry relative="1" as="geometry" />
        </mxCell>
        <mxCell id="YZ45WBWzU4J27midmZaH-21" value="打印变量信息" style="whiteSpace=wrap;html=1;strokeWidth=2;fontSize=13;" vertex="1" parent="WIyWlLk6GJQsqaUBKTNV-1">
          <mxGeometry x="480" y="820" width="120" height="60" as="geometry" />
        </mxCell>
        <mxCell id="YZ45WBWzU4J27midmZaH-22" value="进入barrier" style="whiteSpace=wrap;html=1;strokeWidth=2;fontSize=13;" vertex="1" parent="WIyWlLk6GJQsqaUBKTNV-1">
          <mxGeometry x="130" y="720" width="120" height="60" as="geometry" />
        </mxCell>
        <mxCell id="YZ45WBWzU4J27midmZaH-24" value="测试通过" style="whiteSpace=wrap;html=1;strokeWidth=2;fontSize=13;" vertex="1" parent="WIyWlLk6GJQsqaUBKTNV-1">
          <mxGeometry x="395" y="1020" width="120" height="60" as="geometry" />
        </mxCell>
        <mxCell id="YZ45WBWzU4J27midmZaH-29" style="edgeStyle=orthogonalEdgeStyle;rounded=0;orthogonalLoop=1;jettySize=auto;html=1;exitX=0;exitY=0.5;exitDx=0;exitDy=0;entryX=0.5;entryY=0;entryDx=0;entryDy=0;fontSize=13;" edge="1" parent="WIyWlLk6GJQsqaUBKTNV-1" source="YZ45WBWzU4J27midmZaH-25" target="YZ45WBWzU4J27midmZaH-24">
          <mxGeometry relative="1" as="geometry" />
        </mxCell>
        <mxCell id="YZ45WBWzU4J27midmZaH-31" value="Y" style="edgeLabel;html=1;align=center;verticalAlign=middle;resizable=0;points=[];fontSize=13;" vertex="1" connectable="0" parent="YZ45WBWzU4J27midmZaH-29">
          <mxGeometry x="0.1024" y="1" relative="1" as="geometry">
            <mxPoint y="1" as="offset" />
          </mxGeometry>
        </mxCell>
        <mxCell id="YZ45WBWzU4J27midmZaH-30" style="edgeStyle=orthogonalEdgeStyle;rounded=0;orthogonalLoop=1;jettySize=auto;html=1;exitX=1;exitY=0.5;exitDx=0;exitDy=0;entryX=0.5;entryY=0;entryDx=0;entryDy=0;fontSize=13;" edge="1" parent="WIyWlLk6GJQsqaUBKTNV-1" source="YZ45WBWzU4J27midmZaH-25" target="YZ45WBWzU4J27midmZaH-27">
          <mxGeometry relative="1" as="geometry" />
        </mxCell>
        <mxCell id="YZ45WBWzU4J27midmZaH-32" value="N" style="edgeLabel;html=1;align=center;verticalAlign=middle;resizable=0;points=[];fontSize=13;" vertex="1" connectable="0" parent="YZ45WBWzU4J27midmZaH-30">
          <mxGeometry x="0.2186" y="-1" relative="1" as="geometry">
            <mxPoint y="1" as="offset" />
          </mxGeometry>
        </mxCell>
        <mxCell id="YZ45WBWzU4J27midmZaH-25" value="判断测试线程返回值是否只有1个初始保存的值" style="rhombus;whiteSpace=wrap;html=1;strokeWidth=2;fontSize=13;" vertex="1" parent="WIyWlLk6GJQsqaUBKTNV-1">
          <mxGeometry x="477.5" y="910" width="125" height="80" as="geometry" />
        </mxCell>
        <mxCell id="YZ45WBWzU4J27midmZaH-34" style="edgeStyle=orthogonalEdgeStyle;rounded=0;orthogonalLoop=1;jettySize=auto;html=1;exitX=0.5;exitY=1;exitDx=0;exitDy=0;entryX=1;entryY=0.5;entryDx=0;entryDy=0;entryPerimeter=0;fontSize=13;" edge="1" parent="WIyWlLk6GJQsqaUBKTNV-1" source="YZ45WBWzU4J27midmZaH-27" target="YZ45WBWzU4J27midmZaH-28">
          <mxGeometry relative="1" as="geometry">
            <mxPoint x="540" y="1250" as="targetPoint" />
          </mxGeometry>
        </mxCell>
        <mxCell id="YZ45WBWzU4J27midmZaH-27" value="测试不通过" style="whiteSpace=wrap;html=1;strokeWidth=2;fontSize=13;" vertex="1" parent="WIyWlLk6GJQsqaUBKTNV-1">
          <mxGeometry x="570" y="1020" width="120" height="60" as="geometry" />
        </mxCell>
        <mxCell id="YZ45WBWzU4J27midmZaH-28" value="返回" style="strokeWidth=2;html=1;shape=mxgraph.flowchart.start_1;whiteSpace=wrap;fontSize=13;" vertex="1" parent="WIyWlLk6GJQsqaUBKTNV-1">
          <mxGeometry x="295" y="1100" width="100" height="60" as="geometry" />
        </mxCell>
        <mxCell id="YZ45WBWzU4J27midmZaH-33" style="edgeStyle=orthogonalEdgeStyle;rounded=0;orthogonalLoop=1;jettySize=auto;html=1;exitX=0.5;exitY=1;exitDx=0;exitDy=0;entryX=1;entryY=0.5;entryDx=0;entryDy=0;entryPerimeter=0;fontSize=13;" edge="1" parent="WIyWlLk6GJQsqaUBKTNV-1" source="YZ45WBWzU4J27midmZaH-24" target="YZ45WBWzU4J27midmZaH-28">
          <mxGeometry relative="1" as="geometry" />
        </mxCell>
        <mxCell id="YZ45WBWzU4J27midmZaH-35" style="edgeStyle=orthogonalEdgeStyle;rounded=0;orthogonalLoop=1;jettySize=auto;html=1;exitX=0.5;exitY=1;exitDx=0;exitDy=0;entryX=0;entryY=0.5;entryDx=0;entryDy=0;entryPerimeter=0;fontSize=13;" edge="1" parent="WIyWlLk6GJQsqaUBKTNV-1" source="YZ45WBWzU4J27midmZaH-22" target="YZ45WBWzU4J27midmZaH-28">
          <mxGeometry relative="1" as="geometry" />
        </mxCell>
        <mxCell id="YZ45WBWzU4J27midmZaH-38" value="" style="edgeStyle=orthogonalEdgeStyle;rounded=0;orthogonalLoop=1;jettySize=auto;html=1;fontSize=13;" edge="1" parent="WIyWlLk6GJQsqaUBKTNV-1" source="YZ45WBWzU4J27midmZaH-39" target="YZ45WBWzU4J27midmZaH-44">
          <mxGeometry relative="1" as="geometry" />
        </mxCell>
        <mxCell id="YZ45WBWzU4J27midmZaH-39" value="开始" style="strokeWidth=2;html=1;shape=mxgraph.flowchart.start_1;whiteSpace=wrap;fontSize=13;" vertex="1" parent="WIyWlLk6GJQsqaUBKTNV-1">
          <mxGeometry x="280" y="1320" width="100" height="60" as="geometry" />
        </mxCell>
        <mxCell id="YZ45WBWzU4J27midmZaH-40" value="" style="edgeStyle=orthogonalEdgeStyle;rounded=0;orthogonalLoop=1;jettySize=auto;html=1;fontSize=13;" edge="1" parent="WIyWlLk6GJQsqaUBKTNV-1" source="YZ45WBWzU4J27midmZaH-44" target="YZ45WBWzU4J27midmZaH-46">
          <mxGeometry relative="1" as="geometry" />
        </mxCell>
        <mxCell id="YZ45WBWzU4J27midmZaH-41" value="测试读线程" style="edgeLabel;html=1;align=center;verticalAlign=middle;resizable=0;points=[];fontSize=13;" vertex="1" connectable="0" parent="YZ45WBWzU4J27midmZaH-40">
          <mxGeometry x="-0.1094" y="-1" relative="1" as="geometry">
            <mxPoint as="offset" />
          </mxGeometry>
        </mxCell>
        <mxCell id="YZ45WBWzU4J27midmZaH-42" value="" style="edgeStyle=orthogonalEdgeStyle;rounded=0;orthogonalLoop=1;jettySize=auto;html=1;fontSize=13;entryX=0.5;entryY=0;entryDx=0;entryDy=0;" edge="1" parent="WIyWlLk6GJQsqaUBKTNV-1" source="YZ45WBWzU4J27midmZaH-44" target="YZ45WBWzU4J27midmZaH-50">
          <mxGeometry relative="1" as="geometry">
            <mxPoint x="500" y="1530" as="targetPoint" />
          </mxGeometry>
        </mxCell>
        <mxCell id="YZ45WBWzU4J27midmZaH-43" value="监控线程" style="edgeLabel;html=1;align=center;verticalAlign=middle;resizable=0;points=[];fontSize=13;" vertex="1" connectable="0" parent="YZ45WBWzU4J27midmZaH-42">
          <mxGeometry x="0.503" y="-1" relative="1" as="geometry">
            <mxPoint as="offset" />
          </mxGeometry>
        </mxCell>
        <mxCell id="YZ45WBWzU4J27midmZaH-80" style="edgeStyle=orthogonalEdgeStyle;rounded=0;orthogonalLoop=1;jettySize=auto;html=1;exitX=0;exitY=0.5;exitDx=0;exitDy=0;entryX=0.5;entryY=0;entryDx=0;entryDy=0;fontSize=13;" edge="1" parent="WIyWlLk6GJQsqaUBKTNV-1" source="YZ45WBWzU4J27midmZaH-44" target="YZ45WBWzU4J27midmZaH-74">
          <mxGeometry relative="1" as="geometry" />
        </mxCell>
        <mxCell id="YZ45WBWzU4J27midmZaH-81" value="测试写线程" style="edgeLabel;html=1;align=center;verticalAlign=middle;resizable=0;points=[];fontSize=13;" vertex="1" connectable="0" parent="YZ45WBWzU4J27midmZaH-80">
          <mxGeometry x="0.3237" y="-3" relative="1" as="geometry">
            <mxPoint as="offset" />
          </mxGeometry>
        </mxCell>
        <mxCell id="YZ45WBWzU4J27midmZaH-44" value="根据掩码确定线程类别" style="rhombus;whiteSpace=wrap;html=1;strokeWidth=2;fontSize=13;" vertex="1" parent="WIyWlLk6GJQsqaUBKTNV-1">
          <mxGeometry x="255" y="1410" width="150" height="80" as="geometry" />
        </mxCell>
        <mxCell id="YZ45WBWzU4J27midmZaH-45" value="" style="edgeStyle=orthogonalEdgeStyle;rounded=0;orthogonalLoop=1;jettySize=auto;html=1;fontSize=13;" edge="1" parent="WIyWlLk6GJQsqaUBKTNV-1" source="YZ45WBWzU4J27midmZaH-46" target="YZ45WBWzU4J27midmZaH-52">
          <mxGeometry relative="1" as="geometry" />
        </mxCell>
        <mxCell id="YZ45WBWzU4J27midmZaH-46" value="进入barrier" style="whiteSpace=wrap;html=1;strokeWidth=2;fontSize=13;" vertex="1" parent="WIyWlLk6GJQsqaUBKTNV-1">
          <mxGeometry x="90" y="1640" width="120" height="60" as="geometry" />
        </mxCell>
        <mxCell id="YZ45WBWzU4J27midmZaH-49" value="" style="edgeStyle=orthogonalEdgeStyle;rounded=0;orthogonalLoop=1;jettySize=auto;html=1;fontSize=13;" edge="1" parent="WIyWlLk6GJQsqaUBKTNV-1" source="YZ45WBWzU4J27midmZaH-50" target="YZ45WBWzU4J27midmZaH-54">
          <mxGeometry relative="1" as="geometry" />
        </mxCell>
        <mxCell id="YZ45WBWzU4J27midmZaH-50" value="打印变量信息" style="whiteSpace=wrap;html=1;strokeWidth=2;fontSize=13;" vertex="1" parent="WIyWlLk6GJQsqaUBKTNV-1">
          <mxGeometry x="440" y="1550" width="120" height="60" as="geometry" />
        </mxCell>
        <mxCell id="YZ45WBWzU4J27midmZaH-51" style="edgeStyle=orthogonalEdgeStyle;rounded=0;orthogonalLoop=1;jettySize=auto;html=1;exitX=0.5;exitY=1;exitDx=0;exitDy=0;fontSize=13;" edge="1" parent="WIyWlLk6GJQsqaUBKTNV-1" source="YZ45WBWzU4J27midmZaH-52" target="YZ45WBWzU4J27midmZaH-58">
          <mxGeometry relative="1" as="geometry" />
        </mxCell>
        <mxCell id="YZ45WBWzU4J27midmZaH-52" value="读加锁" style="whiteSpace=wrap;html=1;strokeWidth=2;fontSize=13;" vertex="1" parent="WIyWlLk6GJQsqaUBKTNV-1">
          <mxGeometry x="90" y="1730" width="120" height="60" as="geometry" />
        </mxCell>
        <mxCell id="YZ45WBWzU4J27midmZaH-89" value="" style="edgeStyle=orthogonalEdgeStyle;rounded=0;orthogonalLoop=1;jettySize=auto;html=1;fontSize=13;" edge="1" parent="WIyWlLk6GJQsqaUBKTNV-1" source="YZ45WBWzU4J27midmZaH-54" target="YZ45WBWzU4J27midmZaH-88">
          <mxGeometry relative="1" as="geometry" />
        </mxCell>
        <mxCell id="YZ45WBWzU4J27midmZaH-54" value="进入barrier" style="whiteSpace=wrap;html=1;strokeWidth=2;fontSize=13;" vertex="1" parent="WIyWlLk6GJQsqaUBKTNV-1">
          <mxGeometry x="440" y="1640" width="120" height="60" as="geometry" />
        </mxCell>
        <mxCell id="YZ45WBWzU4J27midmZaH-125" style="edgeStyle=orthogonalEdgeStyle;rounded=0;orthogonalLoop=1;jettySize=auto;html=1;exitX=0.5;exitY=1;exitDx=0;exitDy=0;entryX=0.5;entryY=0;entryDx=0;entryDy=0;fontSize=13;" edge="1" parent="WIyWlLk6GJQsqaUBKTNV-1" source="YZ45WBWzU4J27midmZaH-58" target="YZ45WBWzU4J27midmZaH-83">
          <mxGeometry relative="1" as="geometry" />
        </mxCell>
        <mxCell id="YZ45WBWzU4J27midmZaH-58" value="读操作&lt;div&gt;读者操作计数自增1&lt;/div&gt;" style="whiteSpace=wrap;html=1;strokeWidth=2;fontSize=13;" vertex="1" parent="WIyWlLk6GJQsqaUBKTNV-1">
          <mxGeometry x="90" y="1820" width="120" height="60" as="geometry" />
        </mxCell>
        <mxCell id="YZ45WBWzU4J27midmZaH-59" value="" style="edgeStyle=orthogonalEdgeStyle;rounded=0;orthogonalLoop=1;jettySize=auto;html=1;fontSize=13;entryX=0.5;entryY=0;entryDx=0;entryDy=0;" edge="1" parent="WIyWlLk6GJQsqaUBKTNV-1" source="YZ45WBWzU4J27midmZaH-60" target="YZ45WBWzU4J27midmZaH-62">
          <mxGeometry relative="1" as="geometry">
            <mxPoint x="515" y="2640" as="targetPoint" />
          </mxGeometry>
        </mxCell>
        <mxCell id="YZ45WBWzU4J27midmZaH-60" value="打印变量信息" style="whiteSpace=wrap;html=1;strokeWidth=2;fontSize=13;" vertex="1" parent="WIyWlLk6GJQsqaUBKTNV-1">
          <mxGeometry x="835" y="2398" width="120" height="60" as="geometry" />
        </mxCell>
        <mxCell id="YZ45WBWzU4J27midmZaH-62" value="测试通过" style="whiteSpace=wrap;html=1;strokeWidth=2;fontSize=13;" vertex="1" parent="WIyWlLk6GJQsqaUBKTNV-1">
          <mxGeometry x="670" y="2470" width="120" height="60" as="geometry" />
        </mxCell>
        <mxCell id="YZ45WBWzU4J27midmZaH-70" value="返回" style="strokeWidth=2;html=1;shape=mxgraph.flowchart.start_1;whiteSpace=wrap;fontSize=13;" vertex="1" parent="WIyWlLk6GJQsqaUBKTNV-1">
          <mxGeometry x="10" y="2540" width="100" height="60" as="geometry" />
        </mxCell>
        <mxCell id="YZ45WBWzU4J27midmZaH-73" value="" style="edgeStyle=orthogonalEdgeStyle;rounded=0;orthogonalLoop=1;jettySize=auto;html=1;fontSize=13;" edge="1" parent="WIyWlLk6GJQsqaUBKTNV-1" source="YZ45WBWzU4J27midmZaH-74" target="YZ45WBWzU4J27midmZaH-76">
          <mxGeometry relative="1" as="geometry" />
        </mxCell>
        <mxCell id="YZ45WBWzU4J27midmZaH-74" value="进入barrier" style="whiteSpace=wrap;html=1;strokeWidth=2;fontSize=13;" vertex="1" parent="WIyWlLk6GJQsqaUBKTNV-1">
          <mxGeometry x="-100" y="1640" width="120" height="60" as="geometry" />
        </mxCell>
        <mxCell id="YZ45WBWzU4J27midmZaH-75" style="edgeStyle=orthogonalEdgeStyle;rounded=0;orthogonalLoop=1;jettySize=auto;html=1;exitX=0.5;exitY=1;exitDx=0;exitDy=0;fontSize=13;" edge="1" parent="WIyWlLk6GJQsqaUBKTNV-1" source="YZ45WBWzU4J27midmZaH-76" target="YZ45WBWzU4J27midmZaH-78">
          <mxGeometry relative="1" as="geometry" />
        </mxCell>
        <mxCell id="YZ45WBWzU4J27midmZaH-76" value="写加锁" style="whiteSpace=wrap;html=1;strokeWidth=2;fontSize=13;" vertex="1" parent="WIyWlLk6GJQsqaUBKTNV-1">
          <mxGeometry x="-100" y="1730" width="120" height="60" as="geometry" />
        </mxCell>
        <mxCell id="YZ45WBWzU4J27midmZaH-126" style="edgeStyle=orthogonalEdgeStyle;rounded=0;orthogonalLoop=1;jettySize=auto;html=1;exitX=0.5;exitY=1;exitDx=0;exitDy=0;entryX=0.5;entryY=0;entryDx=0;entryDy=0;fontSize=13;" edge="1" parent="WIyWlLk6GJQsqaUBKTNV-1" source="YZ45WBWzU4J27midmZaH-78" target="YZ45WBWzU4J27midmZaH-82">
          <mxGeometry relative="1" as="geometry" />
        </mxCell>
        <mxCell id="YZ45WBWzU4J27midmZaH-78" value="MEM中count自增1" style="whiteSpace=wrap;html=1;strokeWidth=2;fontSize=13;" vertex="1" parent="WIyWlLk6GJQsqaUBKTNV-1">
          <mxGeometry x="-100" y="1820" width="120" height="60" as="geometry" />
        </mxCell>
        <mxCell id="YZ45WBWzU4J27midmZaH-82" value="写解锁" style="whiteSpace=wrap;html=1;strokeWidth=2;fontSize=13;" vertex="1" parent="WIyWlLk6GJQsqaUBKTNV-1">
          <mxGeometry x="-100" y="1910" width="120" height="60" as="geometry" />
        </mxCell>
        <mxCell id="YZ45WBWzU4J27midmZaH-83" value="读解锁" style="whiteSpace=wrap;html=1;strokeWidth=2;fontSize=13;" vertex="1" parent="WIyWlLk6GJQsqaUBKTNV-1">
          <mxGeometry x="90" y="1910" width="120" height="60" as="geometry" />
        </mxCell>
        <mxCell id="YZ45WBWzU4J27midmZaH-91" value="" style="edgeStyle=orthogonalEdgeStyle;rounded=0;orthogonalLoop=1;jettySize=auto;html=1;fontSize=13;" edge="1" parent="WIyWlLk6GJQsqaUBKTNV-1" source="YZ45WBWzU4J27midmZaH-84" target="YZ45WBWzU4J27midmZaH-90">
          <mxGeometry relative="1" as="geometry" />
        </mxCell>
        <mxCell id="YZ45WBWzU4J27midmZaH-132" value="Y" style="edgeLabel;html=1;align=center;verticalAlign=middle;resizable=0;points=[];fontSize=13;" vertex="1" connectable="0" parent="YZ45WBWzU4J27midmZaH-91">
          <mxGeometry x="-0.1878" y="-1" relative="1" as="geometry">
            <mxPoint as="offset" />
          </mxGeometry>
        </mxCell>
        <mxCell id="YZ45WBWzU4J27midmZaH-103" style="edgeStyle=orthogonalEdgeStyle;rounded=0;orthogonalLoop=1;jettySize=auto;html=1;exitX=1;exitY=0.5;exitDx=0;exitDy=0;entryX=0.5;entryY=0;entryDx=0;entryDy=0;fontSize=13;" edge="1" parent="WIyWlLk6GJQsqaUBKTNV-1" source="YZ45WBWzU4J27midmZaH-84" target="YZ45WBWzU4J27midmZaH-94">
          <mxGeometry relative="1" as="geometry" />
        </mxCell>
        <mxCell id="YZ45WBWzU4J27midmZaH-133" value="N" style="edgeLabel;html=1;align=center;verticalAlign=middle;resizable=0;points=[];fontSize=13;" vertex="1" connectable="0" parent="YZ45WBWzU4J27midmZaH-103">
          <mxGeometry x="-0.442" y="-1" relative="1" as="geometry">
            <mxPoint as="offset" />
          </mxGeometry>
        </mxCell>
        <mxCell id="YZ45WBWzU4J27midmZaH-84" value="写者是否上锁" style="rhombus;whiteSpace=wrap;html=1;fontSize=13;strokeWidth=2;" vertex="1" parent="WIyWlLk6GJQsqaUBKTNV-1">
          <mxGeometry x="425" y="1820" width="150" height="80" as="geometry" />
        </mxCell>
        <mxCell id="YZ45WBWzU4J27midmZaH-108" style="edgeStyle=orthogonalEdgeStyle;rounded=0;orthogonalLoop=1;jettySize=auto;html=1;exitX=0.5;exitY=1;exitDx=0;exitDy=0;fontSize=13;" edge="1" parent="WIyWlLk6GJQsqaUBKTNV-1" source="YZ45WBWzU4J27midmZaH-88" target="YZ45WBWzU4J27midmZaH-84">
          <mxGeometry relative="1" as="geometry" />
        </mxCell>
        <mxCell id="YZ45WBWzU4J27midmZaH-88" value="读取写者标志位" style="whiteSpace=wrap;html=1;fontSize=13;strokeWidth=2;" vertex="1" parent="WIyWlLk6GJQsqaUBKTNV-1">
          <mxGeometry x="440" y="1740" width="120" height="60" as="geometry" />
        </mxCell>
        <mxCell id="YZ45WBWzU4J27midmZaH-93" value="" style="edgeStyle=orthogonalEdgeStyle;rounded=0;orthogonalLoop=1;jettySize=auto;html=1;fontSize=13;" edge="1" parent="WIyWlLk6GJQsqaUBKTNV-1" source="YZ45WBWzU4J27midmZaH-90" target="YZ45WBWzU4J27midmZaH-92">
          <mxGeometry relative="1" as="geometry" />
        </mxCell>
        <mxCell id="YZ45WBWzU4J27midmZaH-90" value="读取读者操作计数" style="whiteSpace=wrap;html=1;fontSize=13;strokeWidth=2;" vertex="1" parent="WIyWlLk6GJQsqaUBKTNV-1">
          <mxGeometry x="300" y="1910" width="120" height="60" as="geometry" />
        </mxCell>
        <mxCell id="YZ45WBWzU4J27midmZaH-102" style="edgeStyle=orthogonalEdgeStyle;rounded=0;orthogonalLoop=1;jettySize=auto;html=1;exitX=0;exitY=0.5;exitDx=0;exitDy=0;entryX=0;entryY=0.5;entryDx=0;entryDy=0;fontSize=13;" edge="1" parent="WIyWlLk6GJQsqaUBKTNV-1" source="YZ45WBWzU4J27midmZaH-92" target="YZ45WBWzU4J27midmZaH-88">
          <mxGeometry relative="1" as="geometry" />
        </mxCell>
        <mxCell id="YZ45WBWzU4J27midmZaH-140" value="N" style="edgeLabel;html=1;align=center;verticalAlign=middle;resizable=0;points=[];fontSize=13;" vertex="1" connectable="0" parent="YZ45WBWzU4J27midmZaH-102">
          <mxGeometry x="-0.7879" y="3" relative="1" as="geometry">
            <mxPoint y="-1" as="offset" />
          </mxGeometry>
        </mxCell>
        <mxCell id="YZ45WBWzU4J27midmZaH-105" style="edgeStyle=orthogonalEdgeStyle;rounded=0;orthogonalLoop=1;jettySize=auto;html=1;exitX=0.5;exitY=1;exitDx=0;exitDy=0;entryX=0.5;entryY=0;entryDx=0;entryDy=0;fontSize=13;" edge="1" parent="WIyWlLk6GJQsqaUBKTNV-1" source="YZ45WBWzU4J27midmZaH-92" target="YZ45WBWzU4J27midmZaH-98">
          <mxGeometry relative="1" as="geometry" />
        </mxCell>
        <mxCell id="YZ45WBWzU4J27midmZaH-139" value="Y" style="edgeLabel;html=1;align=center;verticalAlign=middle;resizable=0;points=[];fontSize=13;" vertex="1" connectable="0" parent="YZ45WBWzU4J27midmZaH-105">
          <mxGeometry x="-0.8789" relative="1" as="geometry">
            <mxPoint y="-1" as="offset" />
          </mxGeometry>
        </mxCell>
        <mxCell id="YZ45WBWzU4J27midmZaH-92" value="是否有读者操作" style="rhombus;whiteSpace=wrap;html=1;fontSize=13;strokeWidth=2;" vertex="1" parent="WIyWlLk6GJQsqaUBKTNV-1">
          <mxGeometry x="300" y="2010" width="120" height="80" as="geometry" />
        </mxCell>
        <mxCell id="YZ45WBWzU4J27midmZaH-104" style="edgeStyle=orthogonalEdgeStyle;rounded=0;orthogonalLoop=1;jettySize=auto;html=1;exitX=0.5;exitY=1;exitDx=0;exitDy=0;entryX=0.5;entryY=0;entryDx=0;entryDy=0;fontSize=13;" edge="1" parent="WIyWlLk6GJQsqaUBKTNV-1" source="YZ45WBWzU4J27midmZaH-94" target="YZ45WBWzU4J27midmZaH-95">
          <mxGeometry relative="1" as="geometry" />
        </mxCell>
        <mxCell id="YZ45WBWzU4J27midmZaH-94" value="读取读者计数" style="whiteSpace=wrap;html=1;fontSize=13;strokeWidth=2;" vertex="1" parent="WIyWlLk6GJQsqaUBKTNV-1">
          <mxGeometry x="570" y="1910" width="120" height="60" as="geometry" />
        </mxCell>
        <mxCell id="YZ45WBWzU4J27midmZaH-106" style="edgeStyle=orthogonalEdgeStyle;rounded=0;orthogonalLoop=1;jettySize=auto;html=1;exitX=0;exitY=0.5;exitDx=0;exitDy=0;entryX=0.5;entryY=0;entryDx=0;entryDy=0;fontSize=13;" edge="1" parent="WIyWlLk6GJQsqaUBKTNV-1" source="YZ45WBWzU4J27midmZaH-95" target="YZ45WBWzU4J27midmZaH-99">
          <mxGeometry relative="1" as="geometry" />
        </mxCell>
        <mxCell id="YZ45WBWzU4J27midmZaH-129" value="不合理范围" style="edgeLabel;html=1;align=center;verticalAlign=middle;resizable=0;points=[];fontSize=13;" vertex="1" connectable="0" parent="YZ45WBWzU4J27midmZaH-106">
          <mxGeometry x="-0.7145" relative="1" as="geometry">
            <mxPoint as="offset" />
          </mxGeometry>
        </mxCell>
        <mxCell id="YZ45WBWzU4J27midmZaH-109" style="edgeStyle=orthogonalEdgeStyle;rounded=0;orthogonalLoop=1;jettySize=auto;html=1;exitX=1;exitY=0.5;exitDx=0;exitDy=0;entryX=0.5;entryY=0;entryDx=0;entryDy=0;fontSize=13;" edge="1" parent="WIyWlLk6GJQsqaUBKTNV-1" source="YZ45WBWzU4J27midmZaH-95" target="YZ45WBWzU4J27midmZaH-96">
          <mxGeometry relative="1" as="geometry" />
        </mxCell>
        <mxCell id="YZ45WBWzU4J27midmZaH-127" value="合理范围" style="edgeLabel;html=1;align=center;verticalAlign=middle;resizable=0;points=[];fontSize=13;" vertex="1" connectable="0" parent="YZ45WBWzU4J27midmZaH-109">
          <mxGeometry x="0.2625" y="1" relative="1" as="geometry">
            <mxPoint x="-1" as="offset" />
          </mxGeometry>
        </mxCell>
        <mxCell id="YZ45WBWzU4J27midmZaH-122" style="edgeStyle=orthogonalEdgeStyle;rounded=0;orthogonalLoop=1;jettySize=auto;html=1;exitX=1;exitY=0.5;exitDx=0;exitDy=0;entryX=0.5;entryY=0;entryDx=0;entryDy=0;fontSize=13;" edge="1" parent="WIyWlLk6GJQsqaUBKTNV-1" source="YZ45WBWzU4J27midmZaH-95" target="YZ45WBWzU4J27midmZaH-110">
          <mxGeometry relative="1" as="geometry" />
        </mxCell>
        <mxCell id="YZ45WBWzU4J27midmZaH-128" value="为0" style="edgeLabel;html=1;align=center;verticalAlign=middle;resizable=0;points=[];fontSize=13;" vertex="1" connectable="0" parent="YZ45WBWzU4J27midmZaH-122">
          <mxGeometry x="0.7528" y="-3" relative="1" as="geometry">
            <mxPoint as="offset" />
          </mxGeometry>
        </mxCell>
        <mxCell id="YZ45WBWzU4J27midmZaH-95" value="判断读者计数范围" style="rhombus;whiteSpace=wrap;html=1;fontSize=13;strokeWidth=2;" vertex="1" parent="WIyWlLk6GJQsqaUBKTNV-1">
          <mxGeometry x="555" y="2000" width="150" height="80" as="geometry" />
        </mxCell>
        <mxCell id="YZ45WBWzU4J27midmZaH-136" style="edgeStyle=orthogonalEdgeStyle;rounded=0;orthogonalLoop=1;jettySize=auto;html=1;exitX=0.5;exitY=1;exitDx=0;exitDy=0;entryX=0.5;entryY=0;entryDx=0;entryDy=0;fontSize=13;" edge="1" parent="WIyWlLk6GJQsqaUBKTNV-1" source="YZ45WBWzU4J27midmZaH-96" target="YZ45WBWzU4J27midmZaH-97">
          <mxGeometry relative="1" as="geometry" />
        </mxCell>
        <mxCell id="YZ45WBWzU4J27midmZaH-96" value="读取写者标志位" style="whiteSpace=wrap;html=1;fontSize=13;strokeWidth=2;" vertex="1" parent="WIyWlLk6GJQsqaUBKTNV-1">
          <mxGeometry x="700" y="2130" width="120" height="60" as="geometry" />
        </mxCell>
        <mxCell id="YZ45WBWzU4J27midmZaH-107" style="edgeStyle=orthogonalEdgeStyle;rounded=0;orthogonalLoop=1;jettySize=auto;html=1;exitX=0;exitY=0.5;exitDx=0;exitDy=0;entryX=0.5;entryY=0;entryDx=0;entryDy=0;fontSize=13;" edge="1" parent="WIyWlLk6GJQsqaUBKTNV-1" source="YZ45WBWzU4J27midmZaH-97" target="YZ45WBWzU4J27midmZaH-98">
          <mxGeometry relative="1" as="geometry" />
        </mxCell>
        <mxCell id="YZ45WBWzU4J27midmZaH-137" value="Y" style="edgeLabel;html=1;align=center;verticalAlign=middle;resizable=0;points=[];fontSize=13;" vertex="1" connectable="0" parent="YZ45WBWzU4J27midmZaH-107">
          <mxGeometry x="-0.8126" y="2" relative="1" as="geometry">
            <mxPoint as="offset" />
          </mxGeometry>
        </mxCell>
        <mxCell id="YZ45WBWzU4J27midmZaH-116" style="edgeStyle=orthogonalEdgeStyle;rounded=0;orthogonalLoop=1;jettySize=auto;html=1;exitX=1;exitY=0.5;exitDx=0;exitDy=0;entryX=1;entryY=0.5;entryDx=0;entryDy=0;fontSize=13;" edge="1" parent="WIyWlLk6GJQsqaUBKTNV-1" source="YZ45WBWzU4J27midmZaH-97" target="YZ45WBWzU4J27midmZaH-88">
          <mxGeometry relative="1" as="geometry" />
        </mxCell>
        <mxCell id="YZ45WBWzU4J27midmZaH-138" value="N" style="edgeLabel;html=1;align=center;verticalAlign=middle;resizable=0;points=[];fontSize=13;" vertex="1" connectable="0" parent="YZ45WBWzU4J27midmZaH-116">
          <mxGeometry x="-0.8539" relative="1" as="geometry">
            <mxPoint as="offset" />
          </mxGeometry>
        </mxCell>
        <mxCell id="YZ45WBWzU4J27midmZaH-97" value="写者是否上锁" style="rhombus;whiteSpace=wrap;html=1;fontSize=13;strokeWidth=2;" vertex="1" parent="WIyWlLk6GJQsqaUBKTNV-1">
          <mxGeometry x="685" y="2220" width="150" height="80" as="geometry" />
        </mxCell>
        <mxCell id="YZ45WBWzU4J27midmZaH-98" value="错误，同时有读写者操作临界区" style="whiteSpace=wrap;html=1;strokeWidth=2;fontSize=13;" vertex="1" parent="WIyWlLk6GJQsqaUBKTNV-1">
          <mxGeometry x="300" y="2470" width="120" height="60" as="geometry" />
        </mxCell>
        <mxCell id="YZ45WBWzU4J27midmZaH-114" style="edgeStyle=orthogonalEdgeStyle;rounded=0;orthogonalLoop=1;jettySize=auto;html=1;exitX=0.5;exitY=1;exitDx=0;exitDy=0;entryX=1;entryY=0.5;entryDx=0;entryDy=0;entryPerimeter=0;fontSize=13;" edge="1" parent="WIyWlLk6GJQsqaUBKTNV-1" source="YZ45WBWzU4J27midmZaH-99" target="YZ45WBWzU4J27midmZaH-70">
          <mxGeometry relative="1" as="geometry">
            <mxPoint x="500" y="2590" as="targetPoint" />
          </mxGeometry>
        </mxCell>
        <mxCell id="YZ45WBWzU4J27midmZaH-99" value="错误，读者范围不合理" style="whiteSpace=wrap;html=1;strokeWidth=2;fontSize=13;" vertex="1" parent="WIyWlLk6GJQsqaUBKTNV-1">
          <mxGeometry x="470" y="2470" width="120" height="60" as="geometry" />
        </mxCell>
        <mxCell id="YZ45WBWzU4J27midmZaH-121" style="edgeStyle=orthogonalEdgeStyle;rounded=0;orthogonalLoop=1;jettySize=auto;html=1;exitX=0.5;exitY=1;exitDx=0;exitDy=0;entryX=0.5;entryY=0;entryDx=0;entryDy=0;fontSize=13;" edge="1" parent="WIyWlLk6GJQsqaUBKTNV-1" source="YZ45WBWzU4J27midmZaH-110" target="YZ45WBWzU4J27midmZaH-112">
          <mxGeometry relative="1" as="geometry" />
        </mxCell>
        <mxCell id="YZ45WBWzU4J27midmZaH-110" value="读取MEM中的cnt" style="whiteSpace=wrap;html=1;fontSize=13;strokeWidth=2;" vertex="1" parent="WIyWlLk6GJQsqaUBKTNV-1">
          <mxGeometry x="940" y="2130" width="120" height="60" as="geometry" />
        </mxCell>
        <mxCell id="YZ45WBWzU4J27midmZaH-119" style="edgeStyle=orthogonalEdgeStyle;rounded=0;orthogonalLoop=1;jettySize=auto;html=1;exitX=0.5;exitY=1;exitDx=0;exitDy=0;entryX=1;entryY=0.5;entryDx=0;entryDy=0;entryPerimeter=0;fontSize=13;" edge="1" parent="WIyWlLk6GJQsqaUBKTNV-1" source="YZ45WBWzU4J27midmZaH-111" target="YZ45WBWzU4J27midmZaH-70">
          <mxGeometry relative="1" as="geometry">
            <mxPoint x="890" y="2580" as="targetPoint" />
          </mxGeometry>
        </mxCell>
        <mxCell id="YZ45WBWzU4J27midmZaH-111" value="错误，同时有多个写者操作临界区" style="whiteSpace=wrap;html=1;strokeWidth=2;fontSize=13;" vertex="1" parent="WIyWlLk6GJQsqaUBKTNV-1">
          <mxGeometry x="1070" y="2470" width="120" height="60" as="geometry" />
        </mxCell>
        <mxCell id="YZ45WBWzU4J27midmZaH-115" style="edgeStyle=orthogonalEdgeStyle;rounded=0;orthogonalLoop=1;jettySize=auto;html=1;exitX=0;exitY=0.5;exitDx=0;exitDy=0;entryX=0.5;entryY=0;entryDx=0;entryDy=0;fontSize=13;" edge="1" parent="WIyWlLk6GJQsqaUBKTNV-1" source="YZ45WBWzU4J27midmZaH-112" target="YZ45WBWzU4J27midmZaH-60">
          <mxGeometry relative="1" as="geometry" />
        </mxCell>
        <mxCell id="YZ45WBWzU4J27midmZaH-134" value="Y" style="edgeLabel;html=1;align=center;verticalAlign=middle;resizable=0;points=[];fontSize=13;" vertex="1" connectable="0" parent="YZ45WBWzU4J27midmZaH-115">
          <mxGeometry x="-0.2279" y="-1" relative="1" as="geometry">
            <mxPoint as="offset" />
          </mxGeometry>
        </mxCell>
        <mxCell id="YZ45WBWzU4J27midmZaH-117" style="edgeStyle=orthogonalEdgeStyle;rounded=0;orthogonalLoop=1;jettySize=auto;html=1;exitX=1;exitY=0.5;exitDx=0;exitDy=0;entryX=0.5;entryY=0;entryDx=0;entryDy=0;fontSize=13;" edge="1" parent="WIyWlLk6GJQsqaUBKTNV-1" source="YZ45WBWzU4J27midmZaH-112" target="YZ45WBWzU4J27midmZaH-111">
          <mxGeometry relative="1" as="geometry" />
        </mxCell>
        <mxCell id="YZ45WBWzU4J27midmZaH-135" value="N" style="edgeLabel;html=1;align=center;verticalAlign=middle;resizable=0;points=[];fontSize=13;" vertex="1" connectable="0" parent="YZ45WBWzU4J27midmZaH-117">
          <mxGeometry x="-0.3344" relative="1" as="geometry">
            <mxPoint y="-1" as="offset" />
          </mxGeometry>
        </mxCell>
        <mxCell id="YZ45WBWzU4J27midmZaH-112" value="是否与写者数量相同" style="rhombus;whiteSpace=wrap;html=1;fontSize=13;strokeWidth=2;" vertex="1" parent="WIyWlLk6GJQsqaUBKTNV-1">
          <mxGeometry x="930" y="2220" width="150" height="80" as="geometry" />
        </mxCell>
        <mxCell id="YZ45WBWzU4J27midmZaH-118" style="edgeStyle=orthogonalEdgeStyle;rounded=0;orthogonalLoop=1;jettySize=auto;html=1;exitX=0.5;exitY=1;exitDx=0;exitDy=0;entryX=1;entryY=0.5;entryDx=0;entryDy=0;entryPerimeter=0;fontSize=13;" edge="1" parent="WIyWlLk6GJQsqaUBKTNV-1" source="YZ45WBWzU4J27midmZaH-62" target="YZ45WBWzU4J27midmZaH-70">
          <mxGeometry relative="1" as="geometry" />
        </mxCell>
        <mxCell id="YZ45WBWzU4J27midmZaH-120" style="edgeStyle=orthogonalEdgeStyle;rounded=0;orthogonalLoop=1;jettySize=auto;html=1;exitX=0.5;exitY=1;exitDx=0;exitDy=0;entryX=1;entryY=0.5;entryDx=0;entryDy=0;entryPerimeter=0;fontSize=13;" edge="1" parent="WIyWlLk6GJQsqaUBKTNV-1" source="YZ45WBWzU4J27midmZaH-98" target="YZ45WBWzU4J27midmZaH-70">
          <mxGeometry relative="1" as="geometry" />
        </mxCell>
        <mxCell id="YZ45WBWzU4J27midmZaH-123" style="edgeStyle=orthogonalEdgeStyle;rounded=0;orthogonalLoop=1;jettySize=auto;html=1;exitX=0.5;exitY=1;exitDx=0;exitDy=0;entryX=0.5;entryY=0;entryDx=0;entryDy=0;entryPerimeter=0;fontSize=13;" edge="1" parent="WIyWlLk6GJQsqaUBKTNV-1" source="YZ45WBWzU4J27midmZaH-83" target="YZ45WBWzU4J27midmZaH-70">
          <mxGeometry relative="1" as="geometry" />
        </mxCell>
        <mxCell id="YZ45WBWzU4J27midmZaH-124" style="edgeStyle=orthogonalEdgeStyle;rounded=0;orthogonalLoop=1;jettySize=auto;html=1;exitX=0.5;exitY=1;exitDx=0;exitDy=0;entryX=0.5;entryY=0;entryDx=0;entryDy=0;entryPerimeter=0;fontSize=13;" edge="1" parent="WIyWlLk6GJQsqaUBKTNV-1" source="YZ45WBWzU4J27midmZaH-82" target="YZ45WBWzU4J27midmZaH-70">
          <mxGeometry relative="1" as="geometry" />
        </mxCell>
        <mxCell id="YZ45WBWzU4J27midmZaH-141" value="" style="edgeStyle=orthogonalEdgeStyle;rounded=0;orthogonalLoop=1;jettySize=auto;html=1;fontSize=13;" edge="1" parent="WIyWlLk6GJQsqaUBKTNV-1" source="YZ45WBWzU4J27midmZaH-142" target="YZ45WBWzU4J27midmZaH-147">
          <mxGeometry relative="1" as="geometry" />
        </mxCell>
        <mxCell id="YZ45WBWzU4J27midmZaH-142" value="开始" style="strokeWidth=2;html=1;shape=mxgraph.flowchart.start_1;whiteSpace=wrap;fontSize=13;" vertex="1" parent="WIyWlLk6GJQsqaUBKTNV-1">
          <mxGeometry x="160" y="2860" width="100" height="60" as="geometry" />
        </mxCell>
        <mxCell id="YZ45WBWzU4J27midmZaH-143" value="" style="edgeStyle=orthogonalEdgeStyle;rounded=0;orthogonalLoop=1;jettySize=auto;html=1;fontSize=13;" edge="1" parent="WIyWlLk6GJQsqaUBKTNV-1" source="YZ45WBWzU4J27midmZaH-147" target="YZ45WBWzU4J27midmZaH-149">
          <mxGeometry relative="1" as="geometry" />
        </mxCell>
        <mxCell id="YZ45WBWzU4J27midmZaH-144" value="测试线程" style="edgeLabel;html=1;align=center;verticalAlign=middle;resizable=0;points=[];fontSize=13;" vertex="1" connectable="0" parent="YZ45WBWzU4J27midmZaH-143">
          <mxGeometry x="-0.1094" y="-1" relative="1" as="geometry">
            <mxPoint as="offset" />
          </mxGeometry>
        </mxCell>
        <mxCell id="YZ45WBWzU4J27midmZaH-145" value="" style="edgeStyle=orthogonalEdgeStyle;rounded=0;orthogonalLoop=1;jettySize=auto;html=1;fontSize=13;entryX=0.5;entryY=0;entryDx=0;entryDy=0;" edge="1" parent="WIyWlLk6GJQsqaUBKTNV-1" source="YZ45WBWzU4J27midmZaH-147" target="YZ45WBWzU4J27midmZaH-153">
          <mxGeometry relative="1" as="geometry">
            <mxPoint x="380" y="3070" as="targetPoint" />
          </mxGeometry>
        </mxCell>
        <mxCell id="YZ45WBWzU4J27midmZaH-146" value="监控线程" style="edgeLabel;html=1;align=center;verticalAlign=middle;resizable=0;points=[];fontSize=13;" vertex="1" connectable="0" parent="YZ45WBWzU4J27midmZaH-145">
          <mxGeometry x="0.503" y="-1" relative="1" as="geometry">
            <mxPoint as="offset" />
          </mxGeometry>
        </mxCell>
        <mxCell id="YZ45WBWzU4J27midmZaH-147" value="根据掩码确定线程类别" style="rhombus;whiteSpace=wrap;html=1;strokeWidth=2;fontSize=13;" vertex="1" parent="WIyWlLk6GJQsqaUBKTNV-1">
          <mxGeometry x="135" y="2950" width="150" height="80" as="geometry" />
        </mxCell>
        <mxCell id="YZ45WBWzU4J27midmZaH-148" value="" style="edgeStyle=orthogonalEdgeStyle;rounded=0;orthogonalLoop=1;jettySize=auto;html=1;fontSize=13;" edge="1" parent="WIyWlLk6GJQsqaUBKTNV-1" source="YZ45WBWzU4J27midmZaH-149" target="YZ45WBWzU4J27midmZaH-155">
          <mxGeometry relative="1" as="geometry" />
        </mxCell>
        <mxCell id="YZ45WBWzU4J27midmZaH-149" value="进入barrier" style="whiteSpace=wrap;html=1;strokeWidth=2;fontSize=13;" vertex="1" parent="WIyWlLk6GJQsqaUBKTNV-1">
          <mxGeometry x="-30" y="3140" width="120" height="60" as="geometry" />
        </mxCell>
        <mxCell id="YZ45WBWzU4J27midmZaH-152" value="" style="edgeStyle=orthogonalEdgeStyle;rounded=0;orthogonalLoop=1;jettySize=auto;html=1;fontSize=13;" edge="1" parent="WIyWlLk6GJQsqaUBKTNV-1" source="YZ45WBWzU4J27midmZaH-153" target="YZ45WBWzU4J27midmZaH-157">
          <mxGeometry relative="1" as="geometry" />
        </mxCell>
        <mxCell id="YZ45WBWzU4J27midmZaH-153" value="打印变量信息" style="whiteSpace=wrap;html=1;strokeWidth=2;fontSize=13;" vertex="1" parent="WIyWlLk6GJQsqaUBKTNV-1">
          <mxGeometry x="320" y="3050" width="120" height="60" as="geometry" />
        </mxCell>
        <mxCell id="YZ45WBWzU4J27midmZaH-154" style="edgeStyle=orthogonalEdgeStyle;rounded=0;orthogonalLoop=1;jettySize=auto;html=1;exitX=0.5;exitY=1;exitDx=0;exitDy=0;fontSize=13;" edge="1" parent="WIyWlLk6GJQsqaUBKTNV-1" source="YZ45WBWzU4J27midmZaH-155" target="YZ45WBWzU4J27midmZaH-161">
          <mxGeometry relative="1" as="geometry" />
        </mxCell>
        <mxCell id="YZ45WBWzU4J27midmZaH-155" value="自旋上锁" style="whiteSpace=wrap;html=1;strokeWidth=2;fontSize=13;" vertex="1" parent="WIyWlLk6GJQsqaUBKTNV-1">
          <mxGeometry x="-30" y="3230" width="120" height="60" as="geometry" />
        </mxCell>
        <mxCell id="YZ45WBWzU4J27midmZaH-156" style="edgeStyle=orthogonalEdgeStyle;rounded=0;orthogonalLoop=1;jettySize=auto;html=1;entryX=0.5;entryY=0;entryDx=0;entryDy=0;fontSize=13;" edge="1" parent="WIyWlLk6GJQsqaUBKTNV-1" source="YZ45WBWzU4J27midmZaH-157" target="YZ45WBWzU4J27midmZaH-159">
          <mxGeometry relative="1" as="geometry" />
        </mxCell>
        <mxCell id="YZ45WBWzU4J27midmZaH-157" value="进入barrier" style="whiteSpace=wrap;html=1;strokeWidth=2;fontSize=13;" vertex="1" parent="WIyWlLk6GJQsqaUBKTNV-1">
          <mxGeometry x="320" y="3140" width="120" height="60" as="geometry" />
        </mxCell>
        <mxCell id="YZ45WBWzU4J27midmZaH-158" style="edgeStyle=orthogonalEdgeStyle;rounded=0;orthogonalLoop=1;jettySize=auto;html=1;exitX=0.5;exitY=1;exitDx=0;exitDy=0;entryX=0.5;entryY=0;entryDx=0;entryDy=0;fontSize=13;" edge="1" parent="WIyWlLk6GJQsqaUBKTNV-1" source="YZ45WBWzU4J27midmZaH-159" target="YZ45WBWzU4J27midmZaH-163">
          <mxGeometry relative="1" as="geometry" />
        </mxCell>
        <mxCell id="YZ45WBWzU4J27midmZaH-159" value="进入barrier" style="whiteSpace=wrap;html=1;strokeWidth=2;fontSize=13;" vertex="1" parent="WIyWlLk6GJQsqaUBKTNV-1">
          <mxGeometry x="320" y="3507" width="120" height="60" as="geometry" />
        </mxCell>
        <mxCell id="YZ45WBWzU4J27midmZaH-178" style="edgeStyle=orthogonalEdgeStyle;rounded=0;orthogonalLoop=1;jettySize=auto;html=1;exitX=0.5;exitY=1;exitDx=0;exitDy=0;entryX=0.5;entryY=0;entryDx=0;entryDy=0;" edge="1" parent="WIyWlLk6GJQsqaUBKTNV-1" source="YZ45WBWzU4J27midmZaH-161" target="YZ45WBWzU4J27midmZaH-176">
          <mxGeometry relative="1" as="geometry" />
        </mxCell>
        <mxCell id="YZ45WBWzU4J27midmZaH-161" value="MEM中count自增1" style="whiteSpace=wrap;html=1;strokeWidth=2;fontSize=13;" vertex="1" parent="WIyWlLk6GJQsqaUBKTNV-1">
          <mxGeometry x="-30" y="3320" width="120" height="60" as="geometry" />
        </mxCell>
        <mxCell id="YZ45WBWzU4J27midmZaH-162" value="" style="edgeStyle=orthogonalEdgeStyle;rounded=0;orthogonalLoop=1;jettySize=auto;html=1;fontSize=13;" edge="1" parent="WIyWlLk6GJQsqaUBKTNV-1" source="YZ45WBWzU4J27midmZaH-163" target="YZ45WBWzU4J27midmZaH-170">
          <mxGeometry relative="1" as="geometry" />
        </mxCell>
        <mxCell id="YZ45WBWzU4J27midmZaH-163" value="打印变量信息" style="whiteSpace=wrap;html=1;strokeWidth=2;fontSize=13;" vertex="1" parent="WIyWlLk6GJQsqaUBKTNV-1">
          <mxGeometry x="320" y="3610" width="120" height="60" as="geometry" />
        </mxCell>
        <mxCell id="YZ45WBWzU4J27midmZaH-164" value="进入barrier" style="whiteSpace=wrap;html=1;strokeWidth=2;fontSize=13;" vertex="1" parent="WIyWlLk6GJQsqaUBKTNV-1">
          <mxGeometry x="-30" y="3507" width="120" height="60" as="geometry" />
        </mxCell>
        <mxCell id="YZ45WBWzU4J27midmZaH-165" value="测试通过" style="whiteSpace=wrap;html=1;strokeWidth=2;fontSize=13;" vertex="1" parent="WIyWlLk6GJQsqaUBKTNV-1">
          <mxGeometry x="235" y="3810" width="120" height="60" as="geometry" />
        </mxCell>
        <mxCell id="YZ45WBWzU4J27midmZaH-166" style="edgeStyle=orthogonalEdgeStyle;rounded=0;orthogonalLoop=1;jettySize=auto;html=1;exitX=0;exitY=0.5;exitDx=0;exitDy=0;entryX=0.5;entryY=0;entryDx=0;entryDy=0;fontSize=13;" edge="1" parent="WIyWlLk6GJQsqaUBKTNV-1" source="YZ45WBWzU4J27midmZaH-170" target="YZ45WBWzU4J27midmZaH-165">
          <mxGeometry relative="1" as="geometry" />
        </mxCell>
        <mxCell id="YZ45WBWzU4J27midmZaH-167" value="Y" style="edgeLabel;html=1;align=center;verticalAlign=middle;resizable=0;points=[];fontSize=13;" vertex="1" connectable="0" parent="YZ45WBWzU4J27midmZaH-166">
          <mxGeometry x="0.1024" y="1" relative="1" as="geometry">
            <mxPoint y="1" as="offset" />
          </mxGeometry>
        </mxCell>
        <mxCell id="YZ45WBWzU4J27midmZaH-168" style="edgeStyle=orthogonalEdgeStyle;rounded=0;orthogonalLoop=1;jettySize=auto;html=1;exitX=1;exitY=0.5;exitDx=0;exitDy=0;entryX=0.5;entryY=0;entryDx=0;entryDy=0;fontSize=13;" edge="1" parent="WIyWlLk6GJQsqaUBKTNV-1" source="YZ45WBWzU4J27midmZaH-170" target="YZ45WBWzU4J27midmZaH-172">
          <mxGeometry relative="1" as="geometry" />
        </mxCell>
        <mxCell id="YZ45WBWzU4J27midmZaH-169" value="N" style="edgeLabel;html=1;align=center;verticalAlign=middle;resizable=0;points=[];fontSize=13;" vertex="1" connectable="0" parent="YZ45WBWzU4J27midmZaH-168">
          <mxGeometry x="0.2186" y="-1" relative="1" as="geometry">
            <mxPoint y="1" as="offset" />
          </mxGeometry>
        </mxCell>
        <mxCell id="YZ45WBWzU4J27midmZaH-170" value="判断count值是否等于测试线程数" style="rhombus;whiteSpace=wrap;html=1;strokeWidth=2;fontSize=13;" vertex="1" parent="WIyWlLk6GJQsqaUBKTNV-1">
          <mxGeometry x="317.5" y="3700" width="125" height="80" as="geometry" />
        </mxCell>
        <mxCell id="YZ45WBWzU4J27midmZaH-171" style="edgeStyle=orthogonalEdgeStyle;rounded=0;orthogonalLoop=1;jettySize=auto;html=1;exitX=0.5;exitY=1;exitDx=0;exitDy=0;entryX=1;entryY=0.5;entryDx=0;entryDy=0;entryPerimeter=0;fontSize=13;" edge="1" parent="WIyWlLk6GJQsqaUBKTNV-1" source="YZ45WBWzU4J27midmZaH-172" target="YZ45WBWzU4J27midmZaH-173">
          <mxGeometry relative="1" as="geometry">
            <mxPoint x="380" y="4040" as="targetPoint" />
          </mxGeometry>
        </mxCell>
        <mxCell id="YZ45WBWzU4J27midmZaH-172" value="测试不通过" style="whiteSpace=wrap;html=1;strokeWidth=2;fontSize=13;" vertex="1" parent="WIyWlLk6GJQsqaUBKTNV-1">
          <mxGeometry x="410" y="3810" width="120" height="60" as="geometry" />
        </mxCell>
        <mxCell id="YZ45WBWzU4J27midmZaH-173" value="返回" style="strokeWidth=2;html=1;shape=mxgraph.flowchart.start_1;whiteSpace=wrap;fontSize=13;" vertex="1" parent="WIyWlLk6GJQsqaUBKTNV-1">
          <mxGeometry x="135" y="3890" width="100" height="60" as="geometry" />
        </mxCell>
        <mxCell id="YZ45WBWzU4J27midmZaH-174" style="edgeStyle=orthogonalEdgeStyle;rounded=0;orthogonalLoop=1;jettySize=auto;html=1;exitX=0.5;exitY=1;exitDx=0;exitDy=0;entryX=1;entryY=0.5;entryDx=0;entryDy=0;entryPerimeter=0;fontSize=13;" edge="1" parent="WIyWlLk6GJQsqaUBKTNV-1" source="YZ45WBWzU4J27midmZaH-165" target="YZ45WBWzU4J27midmZaH-173">
          <mxGeometry relative="1" as="geometry" />
        </mxCell>
        <mxCell id="YZ45WBWzU4J27midmZaH-175" style="edgeStyle=orthogonalEdgeStyle;rounded=0;orthogonalLoop=1;jettySize=auto;html=1;exitX=0.5;exitY=1;exitDx=0;exitDy=0;entryX=0;entryY=0.5;entryDx=0;entryDy=0;entryPerimeter=0;fontSize=13;" edge="1" parent="WIyWlLk6GJQsqaUBKTNV-1" source="YZ45WBWzU4J27midmZaH-164" target="YZ45WBWzU4J27midmZaH-173">
          <mxGeometry relative="1" as="geometry" />
        </mxCell>
        <mxCell id="YZ45WBWzU4J27midmZaH-179" style="edgeStyle=orthogonalEdgeStyle;rounded=0;orthogonalLoop=1;jettySize=auto;html=1;exitX=0.5;exitY=1;exitDx=0;exitDy=0;" edge="1" parent="WIyWlLk6GJQsqaUBKTNV-1" source="YZ45WBWzU4J27midmZaH-176" target="YZ45WBWzU4J27midmZaH-164">
          <mxGeometry relative="1" as="geometry" />
        </mxCell>
        <mxCell id="YZ45WBWzU4J27midmZaH-176" value="自旋解锁" style="whiteSpace=wrap;html=1;strokeWidth=2;fontSize=13;" vertex="1" parent="WIyWlLk6GJQsqaUBKTNV-1">
          <mxGeometry x="-30" y="3410" width="120" height="60" as="geometry" />
        </mxCell>
        <mxCell id="YZ45WBWzU4J27midmZaH-180" value="" style="edgeStyle=orthogonalEdgeStyle;rounded=0;orthogonalLoop=1;jettySize=auto;html=1;fontSize=13;" edge="1" parent="WIyWlLk6GJQsqaUBKTNV-1" source="YZ45WBWzU4J27midmZaH-181" target="YZ45WBWzU4J27midmZaH-186">
          <mxGeometry relative="1" as="geometry" />
        </mxCell>
        <mxCell id="YZ45WBWzU4J27midmZaH-181" value="开始" style="strokeWidth=2;html=1;shape=mxgraph.flowchart.start_1;whiteSpace=wrap;fontSize=13;" vertex="1" parent="WIyWlLk6GJQsqaUBKTNV-1">
          <mxGeometry x="895" y="2870" width="100" height="60" as="geometry" />
        </mxCell>
        <mxCell id="YZ45WBWzU4J27midmZaH-182" value="" style="edgeStyle=orthogonalEdgeStyle;rounded=0;orthogonalLoop=1;jettySize=auto;html=1;fontSize=13;" edge="1" parent="WIyWlLk6GJQsqaUBKTNV-1" source="YZ45WBWzU4J27midmZaH-186" target="YZ45WBWzU4J27midmZaH-188">
          <mxGeometry relative="1" as="geometry" />
        </mxCell>
        <mxCell id="YZ45WBWzU4J27midmZaH-183" value="测试线程" style="edgeLabel;html=1;align=center;verticalAlign=middle;resizable=0;points=[];fontSize=13;" vertex="1" connectable="0" parent="YZ45WBWzU4J27midmZaH-182">
          <mxGeometry x="-0.1094" y="-1" relative="1" as="geometry">
            <mxPoint as="offset" />
          </mxGeometry>
        </mxCell>
        <mxCell id="YZ45WBWzU4J27midmZaH-184" value="" style="edgeStyle=orthogonalEdgeStyle;rounded=0;orthogonalLoop=1;jettySize=auto;html=1;fontSize=13;entryX=0.5;entryY=0;entryDx=0;entryDy=0;" edge="1" parent="WIyWlLk6GJQsqaUBKTNV-1" source="YZ45WBWzU4J27midmZaH-186" target="YZ45WBWzU4J27midmZaH-190">
          <mxGeometry relative="1" as="geometry">
            <mxPoint x="1115" y="3080" as="targetPoint" />
          </mxGeometry>
        </mxCell>
        <mxCell id="YZ45WBWzU4J27midmZaH-185" value="监控线程" style="edgeLabel;html=1;align=center;verticalAlign=middle;resizable=0;points=[];fontSize=13;" vertex="1" connectable="0" parent="YZ45WBWzU4J27midmZaH-184">
          <mxGeometry x="0.503" y="-1" relative="1" as="geometry">
            <mxPoint as="offset" />
          </mxGeometry>
        </mxCell>
        <mxCell id="YZ45WBWzU4J27midmZaH-186" value="根据掩码确定线程类别" style="rhombus;whiteSpace=wrap;html=1;strokeWidth=2;fontSize=13;" vertex="1" parent="WIyWlLk6GJQsqaUBKTNV-1">
          <mxGeometry x="870" y="2960" width="150" height="80" as="geometry" />
        </mxCell>
        <mxCell id="YZ45WBWzU4J27midmZaH-187" value="" style="edgeStyle=orthogonalEdgeStyle;rounded=0;orthogonalLoop=1;jettySize=auto;html=1;fontSize=13;" edge="1" parent="WIyWlLk6GJQsqaUBKTNV-1" source="YZ45WBWzU4J27midmZaH-188" target="YZ45WBWzU4J27midmZaH-192">
          <mxGeometry relative="1" as="geometry" />
        </mxCell>
        <mxCell id="YZ45WBWzU4J27midmZaH-188" value="休眠" style="whiteSpace=wrap;html=1;strokeWidth=2;fontSize=13;" vertex="1" parent="WIyWlLk6GJQsqaUBKTNV-1">
          <mxGeometry x="705" y="3150" width="120" height="60" as="geometry" />
        </mxCell>
        <mxCell id="YZ45WBWzU4J27midmZaH-189" value="" style="edgeStyle=orthogonalEdgeStyle;rounded=0;orthogonalLoop=1;jettySize=auto;html=1;fontSize=13;" edge="1" parent="WIyWlLk6GJQsqaUBKTNV-1" source="YZ45WBWzU4J27midmZaH-190" target="YZ45WBWzU4J27midmZaH-194">
          <mxGeometry relative="1" as="geometry" />
        </mxCell>
        <mxCell id="YZ45WBWzU4J27midmZaH-190" value="打印变量信息" style="whiteSpace=wrap;html=1;strokeWidth=2;fontSize=13;" vertex="1" parent="WIyWlLk6GJQsqaUBKTNV-1">
          <mxGeometry x="1055" y="3060" width="120" height="60" as="geometry" />
        </mxCell>
        <mxCell id="YZ45WBWzU4J27midmZaH-191" style="edgeStyle=orthogonalEdgeStyle;rounded=0;orthogonalLoop=1;jettySize=auto;html=1;exitX=0.5;exitY=1;exitDx=0;exitDy=0;fontSize=13;" edge="1" parent="WIyWlLk6GJQsqaUBKTNV-1" source="YZ45WBWzU4J27midmZaH-192" target="YZ45WBWzU4J27midmZaH-198">
          <mxGeometry relative="1" as="geometry" />
        </mxCell>
        <mxCell id="YZ45WBWzU4J27midmZaH-192" value="自旋上锁" style="whiteSpace=wrap;html=1;strokeWidth=2;fontSize=13;" vertex="1" parent="WIyWlLk6GJQsqaUBKTNV-1">
          <mxGeometry x="705" y="3240" width="120" height="60" as="geometry" />
        </mxCell>
        <mxCell id="YZ45WBWzU4J27midmZaH-228" value="" style="edgeStyle=orthogonalEdgeStyle;rounded=0;orthogonalLoop=1;jettySize=auto;html=1;fontSize=13;" edge="1" parent="WIyWlLk6GJQsqaUBKTNV-1" source="YZ45WBWzU4J27midmZaH-194" target="YZ45WBWzU4J27midmZaH-227">
          <mxGeometry relative="1" as="geometry" />
        </mxCell>
        <mxCell id="YZ45WBWzU4J27midmZaH-194" value="用WFE唤醒测试线程" style="whiteSpace=wrap;html=1;strokeWidth=2;fontSize=13;" vertex="1" parent="WIyWlLk6GJQsqaUBKTNV-1">
          <mxGeometry x="1055" y="3150" width="120" height="60" as="geometry" />
        </mxCell>
        <mxCell id="YZ45WBWzU4J27midmZaH-197" style="edgeStyle=orthogonalEdgeStyle;rounded=0;orthogonalLoop=1;jettySize=auto;html=1;exitX=0.5;exitY=1;exitDx=0;exitDy=0;entryX=0.5;entryY=0;entryDx=0;entryDy=0;fontSize=13;" edge="1" parent="WIyWlLk6GJQsqaUBKTNV-1" source="YZ45WBWzU4J27midmZaH-198" target="YZ45WBWzU4J27midmZaH-214">
          <mxGeometry relative="1" as="geometry" />
        </mxCell>
        <mxCell id="YZ45WBWzU4J27midmZaH-198" value="MEM中count自增1" style="whiteSpace=wrap;html=1;strokeWidth=2;fontSize=13;" vertex="1" parent="WIyWlLk6GJQsqaUBKTNV-1">
          <mxGeometry x="705" y="3330" width="120" height="60" as="geometry" />
        </mxCell>
        <mxCell id="YZ45WBWzU4J27midmZaH-199" value="" style="edgeStyle=orthogonalEdgeStyle;rounded=0;orthogonalLoop=1;jettySize=auto;html=1;fontSize=13;" edge="1" parent="WIyWlLk6GJQsqaUBKTNV-1" source="YZ45WBWzU4J27midmZaH-200" target="YZ45WBWzU4J27midmZaH-207">
          <mxGeometry relative="1" as="geometry" />
        </mxCell>
        <mxCell id="YZ45WBWzU4J27midmZaH-200" value="打印变量信息" style="whiteSpace=wrap;html=1;strokeWidth=2;fontSize=13;" vertex="1" parent="WIyWlLk6GJQsqaUBKTNV-1">
          <mxGeometry x="1055" y="3620" width="120" height="60" as="geometry" />
        </mxCell>
        <mxCell id="YZ45WBWzU4J27midmZaH-225" style="edgeStyle=orthogonalEdgeStyle;rounded=0;orthogonalLoop=1;jettySize=auto;html=1;exitX=0.5;exitY=1;exitDx=0;exitDy=0;entryX=0.5;entryY=0;entryDx=0;entryDy=0;fontSize=13;" edge="1" parent="WIyWlLk6GJQsqaUBKTNV-1" source="YZ45WBWzU4J27midmZaH-201" target="YZ45WBWzU4J27midmZaH-222">
          <mxGeometry relative="1" as="geometry" />
        </mxCell>
        <mxCell id="YZ45WBWzU4J27midmZaH-201" value="设置结束标志" style="whiteSpace=wrap;html=1;strokeWidth=2;fontSize=13;" vertex="1" parent="WIyWlLk6GJQsqaUBKTNV-1">
          <mxGeometry x="705" y="3517" width="120" height="60" as="geometry" />
        </mxCell>
        <mxCell id="YZ45WBWzU4J27midmZaH-202" value="测试通过" style="whiteSpace=wrap;html=1;strokeWidth=2;fontSize=13;" vertex="1" parent="WIyWlLk6GJQsqaUBKTNV-1">
          <mxGeometry x="970" y="3820" width="120" height="60" as="geometry" />
        </mxCell>
        <mxCell id="YZ45WBWzU4J27midmZaH-203" style="edgeStyle=orthogonalEdgeStyle;rounded=0;orthogonalLoop=1;jettySize=auto;html=1;exitX=0;exitY=0.5;exitDx=0;exitDy=0;entryX=0.5;entryY=0;entryDx=0;entryDy=0;fontSize=13;" edge="1" parent="WIyWlLk6GJQsqaUBKTNV-1" source="YZ45WBWzU4J27midmZaH-207" target="YZ45WBWzU4J27midmZaH-202">
          <mxGeometry relative="1" as="geometry" />
        </mxCell>
        <mxCell id="YZ45WBWzU4J27midmZaH-204" value="Y" style="edgeLabel;html=1;align=center;verticalAlign=middle;resizable=0;points=[];fontSize=13;" vertex="1" connectable="0" parent="YZ45WBWzU4J27midmZaH-203">
          <mxGeometry x="0.1024" y="1" relative="1" as="geometry">
            <mxPoint y="1" as="offset" />
          </mxGeometry>
        </mxCell>
        <mxCell id="YZ45WBWzU4J27midmZaH-205" style="edgeStyle=orthogonalEdgeStyle;rounded=0;orthogonalLoop=1;jettySize=auto;html=1;exitX=1;exitY=0.5;exitDx=0;exitDy=0;entryX=0.5;entryY=0;entryDx=0;entryDy=0;fontSize=13;" edge="1" parent="WIyWlLk6GJQsqaUBKTNV-1" source="YZ45WBWzU4J27midmZaH-207" target="YZ45WBWzU4J27midmZaH-209">
          <mxGeometry relative="1" as="geometry" />
        </mxCell>
        <mxCell id="YZ45WBWzU4J27midmZaH-206" value="N" style="edgeLabel;html=1;align=center;verticalAlign=middle;resizable=0;points=[];fontSize=13;" vertex="1" connectable="0" parent="YZ45WBWzU4J27midmZaH-205">
          <mxGeometry x="0.2186" y="-1" relative="1" as="geometry">
            <mxPoint y="1" as="offset" />
          </mxGeometry>
        </mxCell>
        <mxCell id="YZ45WBWzU4J27midmZaH-207" value="判断count值是否等于测试线程数" style="rhombus;whiteSpace=wrap;html=1;strokeWidth=2;fontSize=13;" vertex="1" parent="WIyWlLk6GJQsqaUBKTNV-1">
          <mxGeometry x="1052.5" y="3710" width="125" height="80" as="geometry" />
        </mxCell>
        <mxCell id="YZ45WBWzU4J27midmZaH-208" style="edgeStyle=orthogonalEdgeStyle;rounded=0;orthogonalLoop=1;jettySize=auto;html=1;exitX=0.5;exitY=1;exitDx=0;exitDy=0;entryX=1;entryY=0.5;entryDx=0;entryDy=0;entryPerimeter=0;fontSize=13;" edge="1" parent="WIyWlLk6GJQsqaUBKTNV-1" source="YZ45WBWzU4J27midmZaH-209" target="YZ45WBWzU4J27midmZaH-210">
          <mxGeometry relative="1" as="geometry">
            <mxPoint x="1115" y="4050" as="targetPoint" />
          </mxGeometry>
        </mxCell>
        <mxCell id="YZ45WBWzU4J27midmZaH-209" value="测试不通过" style="whiteSpace=wrap;html=1;strokeWidth=2;fontSize=13;" vertex="1" parent="WIyWlLk6GJQsqaUBKTNV-1">
          <mxGeometry x="1145" y="3820" width="120" height="60" as="geometry" />
        </mxCell>
        <mxCell id="YZ45WBWzU4J27midmZaH-210" value="返回" style="strokeWidth=2;html=1;shape=mxgraph.flowchart.start_1;whiteSpace=wrap;fontSize=13;" vertex="1" parent="WIyWlLk6GJQsqaUBKTNV-1">
          <mxGeometry x="870" y="3900" width="100" height="60" as="geometry" />
        </mxCell>
        <mxCell id="YZ45WBWzU4J27midmZaH-211" style="edgeStyle=orthogonalEdgeStyle;rounded=0;orthogonalLoop=1;jettySize=auto;html=1;exitX=0.5;exitY=1;exitDx=0;exitDy=0;entryX=1;entryY=0.5;entryDx=0;entryDy=0;entryPerimeter=0;fontSize=13;" edge="1" parent="WIyWlLk6GJQsqaUBKTNV-1" source="YZ45WBWzU4J27midmZaH-202" target="YZ45WBWzU4J27midmZaH-210">
          <mxGeometry relative="1" as="geometry" />
        </mxCell>
        <mxCell id="YZ45WBWzU4J27midmZaH-213" style="edgeStyle=orthogonalEdgeStyle;rounded=0;orthogonalLoop=1;jettySize=auto;html=1;exitX=0.5;exitY=1;exitDx=0;exitDy=0;fontSize=13;" edge="1" parent="WIyWlLk6GJQsqaUBKTNV-1" source="YZ45WBWzU4J27midmZaH-214" target="YZ45WBWzU4J27midmZaH-201">
          <mxGeometry relative="1" as="geometry" />
        </mxCell>
        <mxCell id="YZ45WBWzU4J27midmZaH-214" value="自旋解锁" style="whiteSpace=wrap;html=1;strokeWidth=2;fontSize=13;" vertex="1" parent="WIyWlLk6GJQsqaUBKTNV-1">
          <mxGeometry x="705" y="3420" width="120" height="60" as="geometry" />
        </mxCell>
        <mxCell id="YZ45WBWzU4J27midmZaH-226" style="edgeStyle=orthogonalEdgeStyle;rounded=0;orthogonalLoop=1;jettySize=auto;html=1;exitX=0.5;exitY=1;exitDx=0;exitDy=0;entryX=0.5;entryY=0;entryDx=0;entryDy=0;fontSize=13;" edge="1" parent="WIyWlLk6GJQsqaUBKTNV-1" source="YZ45WBWzU4J27midmZaH-222" target="YZ45WBWzU4J27midmZaH-224">
          <mxGeometry relative="1" as="geometry" />
        </mxCell>
        <mxCell id="YZ45WBWzU4J27midmZaH-233" value="Y" style="edgeLabel;html=1;align=center;verticalAlign=middle;resizable=0;points=[];fontSize=13;" vertex="1" connectable="0" parent="YZ45WBWzU4J27midmZaH-226">
          <mxGeometry x="-0.24" relative="1" as="geometry">
            <mxPoint as="offset" />
          </mxGeometry>
        </mxCell>
        <mxCell id="YZ45WBWzU4J27midmZaH-222" value="是否所有测试线程都设置为结束" style="rhombus;whiteSpace=wrap;html=1;fontSize=13;strokeWidth=2;" vertex="1" parent="WIyWlLk6GJQsqaUBKTNV-1">
          <mxGeometry x="687.5" y="3610" width="155" height="80" as="geometry" />
        </mxCell>
        <mxCell id="YZ45WBWzU4J27midmZaH-224" value="唤醒监控线程" style="whiteSpace=wrap;html=1;strokeWidth=2;fontSize=13;" vertex="1" parent="WIyWlLk6GJQsqaUBKTNV-1">
          <mxGeometry x="705" y="3740" width="120" height="60" as="geometry" />
        </mxCell>
        <mxCell id="YZ45WBWzU4J27midmZaH-229" style="edgeStyle=orthogonalEdgeStyle;rounded=0;orthogonalLoop=1;jettySize=auto;html=1;exitX=0.5;exitY=1;exitDx=0;exitDy=0;entryX=0.5;entryY=0;entryDx=0;entryDy=0;fontSize=13;" edge="1" parent="WIyWlLk6GJQsqaUBKTNV-1" source="YZ45WBWzU4J27midmZaH-227" target="YZ45WBWzU4J27midmZaH-200">
          <mxGeometry relative="1" as="geometry" />
        </mxCell>
        <mxCell id="YZ45WBWzU4J27midmZaH-227" value="休眠" style="whiteSpace=wrap;html=1;fontSize=13;strokeWidth=2;" vertex="1" parent="WIyWlLk6GJQsqaUBKTNV-1">
          <mxGeometry x="1055" y="3290" width="120" height="60" as="geometry" />
        </mxCell>
        <mxCell id="YZ45WBWzU4J27midmZaH-230" style="edgeStyle=orthogonalEdgeStyle;rounded=0;orthogonalLoop=1;jettySize=auto;html=1;exitX=0.5;exitY=1;exitDx=0;exitDy=0;entryX=0;entryY=0.5;entryDx=0;entryDy=0;entryPerimeter=0;fontSize=13;" edge="1" parent="WIyWlLk6GJQsqaUBKTNV-1" source="YZ45WBWzU4J27midmZaH-224" target="YZ45WBWzU4J27midmZaH-210">
          <mxGeometry relative="1" as="geometry" />
        </mxCell>
        <mxCell id="YZ45WBWzU4J27midmZaH-231" style="edgeStyle=orthogonalEdgeStyle;rounded=0;orthogonalLoop=1;jettySize=auto;html=1;exitX=1;exitY=0.5;exitDx=0;exitDy=0;entryX=0.5;entryY=0;entryDx=0;entryDy=0;entryPerimeter=0;fontSize=13;" edge="1" parent="WIyWlLk6GJQsqaUBKTNV-1" source="YZ45WBWzU4J27midmZaH-222" target="YZ45WBWzU4J27midmZaH-210">
          <mxGeometry relative="1" as="geometry" />
        </mxCell>
        <mxCell id="YZ45WBWzU4J27midmZaH-234" value="N" style="edgeLabel;html=1;align=center;verticalAlign=middle;resizable=0;points=[];fontSize=13;" vertex="1" connectable="0" parent="YZ45WBWzU4J27midmZaH-231">
          <mxGeometry x="-0.771" y="-1" relative="1" as="geometry">
            <mxPoint x="1" as="offset" />
          </mxGeometry>
        </mxCell>
      </root>
    </mxGraphModel>
  </diagram>
</mxfile>
